<svg width="20" height="20" viewBox="0 0 20 20" fill="none" xmlns="http://www.w3.org/2000/svg">
<path d="M15.8334 7.50001C15.8334 8.70834 15.4751 9.81668 14.8584 10.7417C13.9584 12.075 12.5334 13.0167 10.8751 13.2583C10.5917 13.3083 10.3001 13.3333 10.0001 13.3333C9.70008 13.3333 9.40841 13.3083 9.12508 13.2583C7.46675 13.0167 6.04175 12.075 5.14175 10.7417C4.52508 9.81668 4.16675 8.70834 4.16675 7.50001C4.16675 4.27501 6.77508 1.66667 10.0001 1.66667C13.2251 1.66667 15.8334 4.27501 15.8334 7.50001Z" stroke="#292D32" stroke-width="1.5" stroke-linecap="round" stroke-linejoin="round"/>
<path d="M17.7082 15.3917L16.3332 15.7167C16.0249 15.7917 15.7832 16.025 15.7166 16.3333L15.4249 17.5583C15.2666 18.225 14.4166 18.425 13.9749 17.9L9.9999 13.3333L6.0249 17.9083C5.58324 18.4333 4.73324 18.2333 4.5749 17.5667L4.28324 16.3417C4.20824 16.0333 3.96657 15.7917 3.66657 15.725L2.29157 15.4C1.65824 15.25 1.43324 14.4583 1.89157 14L5.14157 10.75C6.04157 12.0833 7.46657 13.025 9.1249 13.2667C9.40824 13.3167 9.6999 13.3417 9.9999 13.3417C10.2999 13.3417 10.5916 13.3167 10.8749 13.2667C12.5332 13.025 13.9582 12.0833 14.8582 10.75L18.1082 14C18.5666 14.45 18.3416 15.2417 17.7082 15.3917Z" stroke="#292D32" stroke-width="1.5" stroke-linecap="round" stroke-linejoin="round"/>
<path d="M10.4834 4.98333L10.9751 5.96666C11.0417 6.09999 11.2167 6.23333 11.3751 6.25833L12.2667 6.40832C12.8334 6.49999 12.9667 6.91666 12.5584 7.32499L11.8667 8.01665C11.7501 8.13331 11.6834 8.35833 11.7251 8.52499L11.9251 9.38333C12.0834 10.0583 11.7251 10.325 11.1251 9.96665L10.2917 9.47498C10.1417 9.38331 9.89172 9.38331 9.74172 9.47498L8.90839 9.96665C8.30839 10.3166 7.95006 10.0583 8.10839 9.38333L8.30839 8.52499C8.34173 8.36666 8.28339 8.13331 8.16673 8.01665L7.47506 7.32499C7.06673 6.91666 7.20006 6.50832 7.76673 6.40832L8.65839 6.25833C8.80839 6.23333 8.98339 6.09999 9.05006 5.96666L9.54173 4.98333C9.78339 4.44999 10.2167 4.44999 10.4834 4.98333Z" stroke="#292D32" stroke-width="1.5" stroke-linecap="round" stroke-linejoin="round"/>
</svg>
